<?xml version="1.0" encoding="UTF-8"?>
<svg version="1.1" xmlns="http://www.w3.org/2000/svg" width="512" height="512">
<path d="M0 0 C5.7495352 4.33034613 9.66929377 9.16955567 10.8515625 16.39453125 C11.56720232 22.7160163 9.91818789 27.91259913 6.8515625 33.39453125 C2.46633342 38.70121352 -3.36947946 41.7238003 -10.15234375 42.67578125 C-16.45126219 42.97162086 -21.63830304 40.99188954 -26.8984375 37.64453125 C-29.1484375 35.39453125 -29.1484375 35.39453125 -33.1484375 28.39453125 C-43.0484375 28.39453125 -52.9484375 28.39453125 -63.1484375 28.39453125 C-64.9634375 31.61203125 -66.7784375 34.82953125 -68.6484375 38.14453125 C-73.99861439 47.61708981 -79.37739582 57.07304624 -84.7734375 66.51953125 C-85.29369507 67.43091858 -85.29369507 67.43091858 -85.82446289 68.36071777 C-86.81984816 70.10411795 -87.81615795 71.84699019 -88.8125 73.58984375 C-89.38436035 74.59031738 -89.9562207 75.59079102 -90.54541016 76.62158203 C-92.05300555 79.22945113 -93.59052669 81.81646864 -95.1484375 84.39453125 C-88.46281914 86.75046034 -81.71782186 88.6088858 -74.83984375 90.3125 C-73.26794533 90.70566154 -73.26794533 90.70566154 -71.66429138 91.10676575 C-69.4671284 91.65547496 -67.26953493 92.20246304 -65.0715332 92.74780273 C-61.69563759 93.58582927 -58.32137664 94.4302107 -54.94726562 95.27539062 C-52.80738497 95.80896806 -50.66741418 96.34218422 -48.52734375 96.875 C-47.01026573 97.25461128 -47.01026573 97.25461128 -45.46253967 97.64189148 C-44.53074387 97.87245743 -43.59894806 98.10302338 -42.63891602 98.34057617 C-41.40722435 98.64677132 -41.40722435 98.64677132 -40.15065002 98.95915222 C-38.16421631 99.46535906 -38.16421631 99.46535906 -36.1484375 99.39453125 C-35.7359375 98.64469971 -35.3234375 97.89486816 -34.8984375 97.12231445 C-33.32790518 94.27112345 -31.75446595 91.42157421 -30.17919922 88.57299805 C-29.50522418 87.35291486 -28.83232713 86.1322354 -28.16064453 84.91088867 C-24.4820796 78.22384222 -20.73484776 71.586865 -16.7734375 65.0625 C-15.80277344 63.46378052 -15.80277344 63.46378052 -14.8125 61.83276367 C-13.1484375 59.39453125 -13.1484375 59.39453125 -11.1484375 58.39453125 C-9.69861414 58.32179232 -8.24543753 58.31083997 -6.79394531 58.33203125 C-5.44178925 58.34568726 -5.44178925 58.34568726 -4.06231689 58.35961914 C-3.08526794 58.37114014 -2.10821899 58.38266113 -1.1015625 58.39453125 C0.96093759 58.39568984 3.02344038 58.39430724 5.0859375 58.390625 C8.34352685 58.38620693 11.59824586 58.39447899 14.85546875 58.44580078 C17.99623189 58.4911186 21.13251556 58.47912787 24.2734375 58.45703125 C25.24238953 58.48474609 26.21134155 58.51246094 27.20965576 58.54101562 C30.02821502 58.49132859 32.19622386 58.35168328 34.8515625 57.39453125 C36.90118179 55.23831785 38.26842595 53.13134236 39.68130493 50.51856995 C42.08238767 46.16056125 46.26897897 44.73326352 50.8515625 43.39453125 C57.35800526 42.45545704 63.34713802 42.67786937 69.1015625 46.05859375 C73.79449194 49.64114256 77.01964156 53.76553782 78.8515625 59.39453125 C79.72341452 66.74444651 79.46187528 73.389502 74.8515625 79.39453125 C70.50321213 84.15790856 66.39749888 87.50694666 59.8515625 88.39453125 C52.32937478 88.56394989 46.66053505 87.29713929 40.8515625 82.39453125 C38.11827738 79.44546047 36.66658646 77.02457916 34.8515625 73.39453125 C22.3115625 73.39453125 9.7715625 73.39453125 -3.1484375 73.39453125 C-7.62158101 81.3963737 -7.62158101 81.3963737 -12.09301758 89.39916992 C-12.65400146 90.40181885 -13.21498535 91.40446777 -13.79296875 92.4375 C-14.64918823 93.9692688 -14.64918823 93.9692688 -15.52270508 95.53198242 C-17.02557134 98.1781916 -18.57051826 100.79253197 -20.1484375 103.39453125 C-19.26321411 103.64360229 -19.26321411 103.64360229 -18.36010742 103.89770508 C-15.68237805 104.65731285 -13.00923473 105.4319766 -10.3359375 106.20703125 C-8.9427832 106.59858398 -8.9427832 106.59858398 -7.52148438 106.99804688 C-6.62880859 107.25908203 -5.73613281 107.52011719 -4.81640625 107.7890625 C-3.99422607 108.02471924 -3.1720459 108.26037598 -2.32495117 108.50317383 C0.8283694 109.79456737 2.30862023 111.32875075 3.84716797 114.34887695 C4.13479004 115.08195068 4.42241211 115.81502441 4.71875 116.5703125 C5.04488281 117.39217041 5.37101562 118.21402832 5.70703125 119.06079102 C6.04347656 119.93405029 6.37992187 120.80730957 6.7265625 121.70703125 C7.07589844 122.59898193 7.42523438 123.49093262 7.78515625 124.40991211 C15.8515625 145.1284468 15.8515625 145.1284468 15.8515625 149.39453125 C35.6515625 149.39453125 55.4515625 149.39453125 75.8515625 149.39453125 C76.5115625 147.74453125 77.1715625 146.09453125 77.8515625 144.39453125 C81.18187569 139.33738899 85.17446505 136.81792381 90.7890625 134.64453125 C98.33627397 133.72971774 104.1858977 134.5712486 110.8515625 138.39453125 C116.67519852 143.55911381 119.27230478 149.04831417 119.87109375 156.7421875 C119.81694292 164.09587089 116.7293869 169.49834824 111.7265625 174.73046875 C106.53298174 179.33977167 101.16750495 179.89464412 94.4921875 179.67578125 C87.93119416 178.97697723 82.04054757 175.46773481 77.8515625 170.39453125 C77.1915625 168.41453125 76.5315625 166.43453125 75.8515625 164.39453125 C58.3615625 164.39453125 40.8715625 164.39453125 22.8515625 164.39453125 C28.11362569 178.45714517 28.11362569 178.45714517 33.3828125 192.51708984 C34.03932177 194.27561937 34.69558857 196.03423946 35.3515625 197.79296875 C35.69703125 198.71118408 36.0425 199.62939941 36.3984375 200.57543945 C36.72328125 201.44821533 37.048125 202.32099121 37.3828125 203.22021484 C37.80916992 204.35938858 37.80916992 204.35938858 38.24414062 205.52157593 C38.8515625 207.39453125 38.8515625 207.39453125 38.8515625 209.39453125 C51.0615625 209.39453125 63.2715625 209.39453125 75.8515625 209.39453125 C76.5115625 207.74453125 77.1715625 206.09453125 77.8515625 204.39453125 C81.54228287 198.9143707 85.46756959 196.2011302 91.8515625 194.39453125 C98.83196341 193.32062342 104.92735029 194.50924485 110.8515625 198.39453125 C116.60490348 203.70435986 119.25740978 208.96121917 119.875 216.73828125 C119.81585804 223.44103718 117.21223464 229.04486617 112.640625 233.88671875 C107.26909024 238.41382009 101.29791455 240.10856372 94.3359375 239.7734375 C87.25560952 238.69357616 82.44007572 235.66938075 77.9453125 230.17578125 C76.8515625 228.39453125 76.8515625 228.39453125 75.8515625 224.39453125 C65.6215625 224.39453125 55.3915625 224.39453125 44.8515625 224.39453125 C46.1715625 227.69453125 47.4915625 230.99453125 48.8515625 234.39453125 C49.22161675 237.41949188 49.43866788 240.06486206 49.41796875 243.0703125 C49.42416733 243.84336227 49.43036591 244.61641205 49.43675232 245.41288757 C49.44378389 247.0269547 49.44079473 248.64109539 49.42797852 250.25512695 C49.41398745 252.72025488 49.44842293 255.18166836 49.48632812 257.64648438 C49.48727843 259.22526134 49.48542527 260.80404303 49.48046875 262.3828125 C49.49372696 263.11309158 49.50698517 263.84337067 49.52064514 264.59577942 C49.44843345 268.56034337 49.00724867 270.20943109 46.42089844 273.28442383 C45.57301758 273.98075928 44.72513672 274.67709473 43.8515625 275.39453125 C42.99111328 276.27238281 42.99111328 276.27238281 42.11328125 277.16796875 C38.55236778 280.79073431 34.86526978 284.19411839 31.01953125 287.51171875 C28.60313299 289.61028445 26.22627226 291.74892825 23.8515625 293.89453125 C11.7218106 304.83363266 11.7218106 304.83363266 7.77124023 307.37988281 C5.78706094 309.04480137 4.95867655 309.98041113 4.30477905 312.50848389 C4.11062073 315.13272395 4.09947942 317.70109956 4.15234375 320.33203125 C4.14575241 321.28972412 4.13916107 322.24741699 4.13237 323.23413086 C4.1149036 326.28830803 4.13687127 329.34045089 4.1640625 332.39453125 C4.17537062 335.44820373 4.1780044 338.50126931 4.16362 341.55493164 C4.15624666 343.45256141 4.16440283 345.35033152 4.1900177 347.24780273 C4.18763202 352.06586168 4.15683066 355.57596656 0.8515625 359.39453125 C-1.76935417 360.37923434 -4.0029049 361.03611486 -6.7109375 361.58203125 C-7.42822021 361.74219727 -8.14550293 361.90236328 -8.88452148 362.06738281 C-10.96907069 362.5279582 -13.05797113 362.96178809 -15.1484375 363.39453125 C-16.14875 363.62269531 -17.1490625 363.85085938 -18.1796875 364.0859375 C-22.85610077 365.11792376 -27.36201256 366.05149154 -32.1484375 365.39453125 C-36.55240092 361.52233892 -40.02055368 356.90432929 -43.5859375 352.26953125 C-44.19646973 351.4803833 -44.80700195 350.69123535 -45.43603516 349.87817383 C-50.30261557 343.55935789 -55.04542909 337.15399336 -59.75341797 330.71655273 C-64.81946671 323.80120629 -70.00446003 316.9811831 -75.24633789 310.19824219 C-78.51625874 305.94524161 -81.68227038 301.66787349 -84.6640625 297.20703125 C-91.70573947 286.16871331 -91.70573947 286.16871331 -103.19921875 280.63671875 C-103.84246094 280.55679687 -104.48570312 280.476875 -105.1484375 280.39453125 C-105.41688477 281.10504639 -105.68533203 281.81556152 -105.96191406 282.54760742 C-107.18205245 285.47518638 -108.59311439 288.17296454 -110.1328125 290.9453125 C-110.7314209 292.02449951 -111.3300293 293.10368652 -111.94677734 294.21557617 C-112.5908252 295.36775635 -113.23487305 296.51993652 -113.8984375 297.70703125 C-114.39431366 298.59716415 -114.39431366 298.59716415 -114.90020752 299.50527954 C-120.24186509 309.09257803 -125.71069233 318.60121434 -131.27587891 328.06079102 C-133.8574841 332.45129872 -136.4196757 336.84640989 -138.8828125 341.3046875 C-139.29225098 342.04565674 -139.70168945 342.78662598 -140.12353516 343.55004883 C-140.85860329 344.88893407 -141.58802037 346.23094751 -142.31005859 347.5769043 C-144.24092196 351.09740505 -145.9341493 353.96587173 -149.1484375 356.39453125 C-152.17749727 356.74343211 -154.83147037 356.86207881 -157.8515625 356.78515625 C-158.68935242 356.77949646 -159.52714233 356.77383667 -160.39031982 356.76800537 C-163.06027916 356.74565454 -165.72888537 356.69546223 -168.3984375 356.64453125 C-170.21091809 356.6244645 -172.02341976 356.60621403 -173.8359375 356.58984375 C-178.27395709 356.54579419 -182.71096806 356.47677691 -187.1484375 356.39453125 C-187.28491699 357.01255615 -187.42139648 357.63058105 -187.56201172 358.26733398 C-189.02286823 363.56643588 -193.84399941 367.57606029 -198.3359375 370.39453125 C-205.02097356 372.14798333 -212.07127018 372.70516526 -218.5234375 369.83203125 C-224.21214196 366.48991738 -228.10014635 361.64135584 -230.1484375 355.39453125 C-231.11817888 348.17761382 -230.44197532 341.96675201 -226.83984375 335.59375 C-222.81823025 330.36472367 -217.62372362 327.37785418 -211.1484375 326.39453125 C-204.79736261 325.77187685 -199.64821303 327.29186183 -194.1484375 330.39453125 C-190.29950955 333.7390634 -188.39224453 336.41930312 -187.1484375 341.39453125 C-176.9184375 341.39453125 -166.6884375 341.39453125 -156.1484375 341.39453125 C-155.4884375 339.74453125 -154.8284375 338.09453125 -154.1484375 336.39453125 C-153.18152435 334.52955054 -152.18401737 332.68025923 -151.1640625 330.84375 C-150.56513184 329.76407959 -149.96620117 328.68440918 -149.34912109 327.57202148 C-148.70539551 326.42032471 -148.06166992 325.26862793 -147.3984375 324.08203125 C-147.06918274 323.49060333 -146.73992798 322.89917542 -146.4006958 322.28982544 C-141.00271715 312.59395097 -135.47042977 302.98122104 -129.80566406 293.43823242 C-126.32244801 287.54039604 -123.12431595 281.564341 -120.1484375 275.39453125 C-121.39343018 274.96108398 -122.63842285 274.52763672 -123.92114258 274.08105469 C-128.58628311 272.45664989 -133.25107661 270.83125048 -137.91577148 269.20556641 C-139.92609513 268.50510408 -141.93650999 267.80490345 -143.94702148 267.10498047 C-146.85425051 266.09282872 -149.76113882 265.07970353 -152.66796875 264.06640625 C-153.55176712 263.7589447 -154.43556549 263.45148315 -155.34614563 263.13470459 C-160.89373667 261.19957772 -166.412752 259.20043776 -171.91532898 257.14044189 C-174.07220127 256.28892564 -174.07220127 256.28892564 -176.1484375 256.39453125 C-176.49922363 257.02617187 -176.85000977 257.6578125 -177.21142578 258.30859375 C-183.97504247 270.47302519 -190.78953614 282.60499396 -197.7734375 294.64453125 C-198.3523877 295.64871094 -198.93133789 296.65289062 -199.52783203 297.6875 C-200.07552246 298.62722656 -200.62321289 299.56695312 -201.1875 300.53515625 C-201.66396973 301.35532227 -202.14043945 302.17548828 -202.63134766 303.02050781 C-203.1319873 303.80393555 -203.63262695 304.58736328 -204.1484375 305.39453125 C-204.64939941 306.30968506 -205.15036133 307.22483887 -205.66650391 308.16772461 C-209.62029166 311.71508818 -213.6950413 311.01410294 -218.8203125 310.8828125 C-219.85786682 310.87573776 -220.89542114 310.86866302 -221.9644165 310.8613739 C-225.27649198 310.83339766 -228.58687349 310.77065054 -231.8984375 310.70703125 C-234.14450683 310.68195268 -236.39060267 310.65913874 -238.63671875 310.63867188 C-244.14120242 310.58356065 -249.64469895 310.49990186 -255.1484375 310.39453125 C-255.45241455 311.18005371 -255.7563916 311.96557617 -256.06958008 312.77490234 C-258.17494991 317.88705856 -261.57163469 321.39696213 -266.2109375 324.33203125 C-272.52240129 326.53825089 -279.7814926 326.63834175 -286.03515625 324.328125 C-292.67725868 320.68440065 -296.67209176 316.05069858 -298.9609375 308.83203125 C-299.0228125 308.02765625 -299.0846875 307.22328125 -299.1484375 306.39453125 C-299.303125 304.81671875 -299.303125 304.81671875 -299.4609375 303.20703125 C-298.91886975 296.59380472 -296.89783878 290.57245988 -291.9609375 285.95703125 C-286.47769524 281.85043279 -280.87095146 280.04140066 -274.0234375 280.45703125 C-266.50570068 281.56258078 -262.15358974 284.91788155 -257.3125 290.61328125 C-256.1484375 292.39453125 -256.1484375 292.39453125 -255.1484375 296.39453125 C-242.2784375 296.39453125 -229.4084375 296.39453125 -216.1484375 296.39453125 C-215.4884375 294.74453125 -214.8284375 293.09453125 -214.1484375 291.39453125 C-213.09979943 289.38865724 -212.02005873 287.39888537 -210.91796875 285.421875 C-210.27923828 284.27396484 -209.64050781 283.12605469 -208.98242188 281.94335938 C-208.64944092 281.3485376 -208.31645996 280.75371582 -207.97338867 280.14086914 C-206.97841233 278.36325166 -205.98782641 276.5832496 -204.99804688 274.80273438 C-201.23389656 268.04702757 -197.38552991 261.35532992 -193.4050293 254.72485352 C-191.99022829 252.54239099 -191.99022829 252.54239099 -192.1484375 250.39453125 C-196.37352166 248.94491083 -200.60341812 247.50977307 -204.8359375 246.08203125 C-205.48794128 245.86166199 -206.13994507 245.64129272 -206.81170654 245.41424561 C-215.23880501 242.57558756 -223.69715333 239.89770099 -232.23828125 237.421875 C-233.07540146 237.178358 -233.91252167 236.934841 -234.77500916 236.6839447 C-238.89794322 235.48760136 -243.02491205 234.30854939 -247.15893555 233.15112305 C-248.67898735 232.71442534 -250.19893088 232.27735056 -251.71875 231.83984375 C-252.41230087 231.65159531 -253.10585175 231.46334686 -253.82041931 231.26939392 C-257.92705877 230.07180451 -260.51873705 228.80367964 -263.1484375 225.39453125 C-264.06152344 223.33569336 -264.06152344 223.33569336 -264.6328125 221.171875 C-264.95185547 219.99334961 -264.95185547 219.99334961 -265.27734375 218.79101562 C-265.48230469 217.97955078 -265.68726563 217.16808594 -265.8984375 216.33203125 C-266.11886719 215.51669922 -266.33929688 214.70136719 -266.56640625 213.86132812 C-267.43360342 210.58375371 -268.1484375 207.80224251 -268.1484375 204.39453125 C-276.0684375 204.39453125 -283.9884375 204.39453125 -292.1484375 204.39453125 C-292.8084375 206.04453125 -293.4684375 207.69453125 -294.1484375 209.39453125 C-297.47875069 214.45167351 -301.47134005 216.97113869 -307.0859375 219.14453125 C-314.63314897 220.05934476 -320.4827727 219.2178139 -327.1484375 215.39453125 C-332.97207352 210.22994869 -335.56917978 204.74074833 -336.16796875 197.046875 C-336.11381792 189.69319161 -333.0262619 184.29071426 -328.0234375 179.05859375 C-322.82985674 174.44929083 -317.46437995 173.89441838 -310.7890625 174.11328125 C-304.22806916 174.81208527 -298.33742257 178.32132769 -294.1484375 183.39453125 C-293.4884375 185.37453125 -292.8284375 187.35453125 -292.1484375 189.39453125 C-285.5484375 189.39453125 -278.9484375 189.39453125 -272.1484375 189.39453125 C-272.9321875 186.65140625 -273.7159375 183.90828125 -274.5234375 181.08203125 C-277.49411276 170.40069208 -277.49411276 170.40069208 -278.6484375 165.08203125 C-278.82375 164.28152344 -278.9990625 163.48101562 -279.1796875 162.65625 C-279.13477401 159.40563581 -278.13431937 157.95643971 -276.1484375 155.39453125 C-274.06438633 153.76972706 -272.06041744 152.35697062 -269.8359375 150.95703125 C-268.88122559 150.33828125 -268.88122559 150.33828125 -267.90722656 149.70703125 C-265.66189397 148.25733887 -263.4055872 146.82575199 -261.1484375 145.39453125 C-259.22241711 144.16443685 -257.29664883 142.93394766 -255.37109375 141.703125 C-250.67769869 138.70730019 -245.97687639 135.7234449 -241.27050781 132.74804688 C-239.54995396 131.65062964 -237.84643794 130.52653154 -236.1484375 129.39453125 C-254.6284375 129.06453125 -273.1084375 128.73453125 -292.1484375 128.39453125 C-292.8084375 130.37453125 -293.4684375 132.35453125 -294.1484375 134.39453125 C-298.68573119 139.74935533 -303.6632116 142.95913952 -310.68359375 143.640625 C-318.0585364 143.97538856 -323.27331383 142.79407156 -328.8671875 137.88671875 C-333.48403595 133.02092259 -335.93321137 127.59470171 -336.27734375 120.87890625 C-335.89942951 113.41223697 -333.06113902 108.30723277 -327.8359375 103.08203125 C-321.94730629 99.38451863 -316.1330703 97.40255033 -309.1484375 98.39453125 C-302.33984313 100.05171743 -297.32146372 103.27986033 -293.2734375 109.08203125 C-292.1484375 111.39453125 -292.1484375 111.39453125 -292.1484375 113.39453125 C-281.67184806 113.56650537 -271.19717579 113.66570916 -260.7191124 113.67693806 C-255.85116175 113.68433661 -250.98587425 113.71498034 -246.11865234 113.80249023 C-216.32209217 114.93004633 -216.32209217 114.93004633 -190.97253418 101.00271606 C-188.27003903 98.62010569 -185.36269133 96.85572753 -182.2890625 94.9765625 C-180.81578491 94.0318811 -180.81578491 94.0318811 -179.31274414 93.06811523 C-177.28259433 91.77165616 -175.25036883 90.47844413 -173.21655273 89.18774414 C-168.5513907 86.22596949 -163.9070773 83.25524299 -159.35546875 80.12109375 C-158.64422852 79.64309326 -157.93298828 79.16509277 -157.20019531 78.67260742 C-155.93363143 77.81906026 -154.67982804 76.94603005 -153.44433594 76.0480957 C-148.20985438 72.57675249 -143.99725571 73.22228337 -138.1484375 74.39453125 C-133.97362234 75.31377219 -129.84257411 76.36119409 -125.7109375 77.45703125 C-123.58805578 78.01353953 -121.46439046 78.56706976 -119.33984375 79.1171875 C-118.41373291 79.36218994 -117.48762207 79.60719238 -116.53344727 79.85961914 C-114.06793412 80.50395339 -114.06793412 80.50395339 -111.1484375 80.39453125 C-110.83841797 79.84442383 -110.52839844 79.29431641 -110.20898438 78.72753906 C-86.28929119 36.30228995 -86.28929119 36.30228995 -76.8359375 20.26953125 C-76.17980469 19.15320313 -75.52367187 18.036875 -74.84765625 16.88671875 C-73.1484375 14.39453125 -73.1484375 14.39453125 -70.1484375 12.39453125 C-67.31860551 12.22260052 -64.58961877 12.16244688 -61.76171875 12.19921875 C-60.94470993 12.20204865 -60.12770111 12.20487854 -59.28593445 12.20779419 C-56.67745291 12.21898584 -54.0693152 12.24408835 -51.4609375 12.26953125 C-49.69206225 12.27956237 -47.92318162 12.28868799 -46.15429688 12.296875 C-41.81887801 12.31892183 -37.48371605 12.35344455 -33.1484375 12.39453125 C-32.86613281 11.63398437 -32.58382813 10.8734375 -32.29296875 10.08984375 C-30.0149878 4.72531523 -26.36415164 0.93552019 -21.1484375 -1.60546875 C-14.162352 -3.72971745 -6.38661228 -3.71895324 0 0 Z M-17.5859375 13.95703125 C-19.76843422 17.36172613 -19.78578212 19.42883137 -19.1484375 23.39453125 C-17.21717648 26.07291698 -17.21717648 26.07291698 -14.1484375 27.39453125 C-10.34559079 27.39453125 -8.12913744 27.19134995 -5.1484375 24.76953125 C-3.69208696 21.31069872 -4.23537881 18.98154754 -5.1484375 15.39453125 C-6.12892688 13.3305044 -6.12892688 13.3305044 -8.1484375 12.39453125 C-12.04348541 11.89879788 -14.24337467 11.81436277 -17.5859375 13.95703125 Z M50.8515625 60.39453125 C48.5172067 63.27914188 48.5172067 63.27914188 48.9140625 66.89453125 C49.53368357 70.46421456 49.53368357 70.46421456 52.0390625 72.39453125 C55.496123 73.62370832 57.35824626 73.45771445 60.8515625 72.39453125 C62.8515625 71.39453125 62.8515625 71.39453125 63.8515625 69.39453125 C64.35799989 65.4153803 64.51752138 63.29833259 62.1015625 60.01953125 C57.50837677 56.70223044 55.44013199 57.01348005 50.8515625 60.39453125 Z M-137.1484375 90.39453125 C-137.22973719 99.22580262 -137.00583286 107.99869517 -136.52734375 116.81640625 C-136.46312729 118.04184143 -136.39891083 119.26727661 -136.33274841 120.52984619 C-136.19736062 123.09794729 -136.06030209 125.66596082 -135.92163086 128.23388672 C-135.71075686 132.14788408 -135.50636839 136.06218248 -135.30273438 139.9765625 C-135.16965538 142.48569751 -135.03620468 144.99481284 -134.90234375 147.50390625 C-134.8418837 148.66347839 -134.78142365 149.82305054 -134.71913147 151.01776123 C-134.38282753 157.17653001 -133.89897736 163.27206806 -133.1484375 169.39453125 C-122.31128174 171.31092418 -111.25385515 171.98522585 -100.2879467 172.81845093 C-96.25468726 173.12680863 -92.22864016 173.46443675 -88.20410156 173.87207031 C-71.51658878 176.2836189 -71.51658878 176.2836189 -55.57562256 173.09552002 C-51.59034072 169.82188293 -49.2120412 165.88621083 -47.04998779 161.2545166 C-45.84842248 158.77557127 -44.24379185 156.77691589 -42.484375 154.66796875 C-41.49557327 153.36987587 -40.50853615 152.07043656 -39.5234375 150.76953125 C-38.43645691 149.33964683 -37.34921441 147.90996148 -36.26171875 146.48046875 C-35.47788818 145.44937988 -35.47788818 145.44937988 -34.67822266 144.39746094 C-33.23368923 142.50615034 -31.77824191 140.62404983 -30.31640625 138.74609375 C-25.6740638 132.77870679 -21.23376722 126.75880251 -17.1484375 120.39453125 C-30.93749639 116.47254014 -44.80192839 112.90718525 -58.7109375 109.4375 C-60.92247893 108.88427699 -63.13398545 108.33091441 -65.34545898 107.77742004 C-69.9369575 106.62881474 -74.52886964 105.48188242 -79.12109375 104.33618164 C-85.015433 102.86547252 -90.90868839 101.39047031 -96.801651 99.9142561 C-101.34779796 98.77591857 -105.89449938 97.63980908 -110.44137573 96.50438881 C-112.61694621 95.96082998 -114.79234181 95.41657067 -116.96755981 94.87160301 C-119.98692599 94.11549861 -123.00702399 93.3623922 -126.02734375 92.61010742 C-126.92694824 92.38419418 -127.82655273 92.15828094 -128.75341797 91.92552185 C-129.57156982 91.7223938 -130.38972168 91.51926575 -131.23266602 91.3099823 C-131.94487808 91.1321178 -132.65709015 90.95425329 -133.3908844 90.77099895 C-135.17480727 90.32471496 -135.17480727 90.32471496 -137.1484375 90.39453125 Z M-159.6484375 98.39453125 C-160.69946655 99.05461182 -160.69946655 99.05461182 -161.77172852 99.72802734 C-171.51062815 105.86019667 -181.19116953 112.08458157 -190.87841797 118.29785156 C-196.13285526 121.66690543 -201.39074185 125.03056551 -206.6484375 128.39453125 C-212.96998225 132.43948609 -219.29090839 136.48539441 -225.609375 140.53515625 C-226.68380859 141.22351563 -227.75824219 141.911875 -228.86523438 142.62109375 C-230.86424984 143.90184825 -232.86298363 145.1830426 -234.86132812 146.46484375 C-244.26190967 152.48638464 -253.70561308 158.4395367 -263.1484375 164.39453125 C-260.53101455 193.31450604 -260.53101455 193.31450604 -248.23327637 218.37695312 C-238.06404528 225.93408186 -222.73388239 228.05780591 -210.36572266 227.10229492 C-207.12292172 226.38891809 -205.86346627 225.85384983 -203.5703125 223.55078125 C-202.97275146 222.96868896 -202.37519043 222.38659668 -201.75952148 221.78686523 C-201.14536377 221.16239502 -200.53120605 220.5379248 -199.8984375 219.89453125 C-198.57416737 218.60154694 -197.24733344 217.31118334 -195.91796875 216.0234375 C-195.27424316 215.3958252 -194.63051758 214.76821289 -193.96728516 214.12158203 C-191.61199597 211.88516382 -189.13056329 209.84888281 -186.5859375 207.83203125 C-182.24681857 204.3697625 -178.18631711 200.69703588 -174.1484375 196.89453125 C-169.96192795 192.95391865 -165.73825915 189.14333386 -161.2734375 185.51953125 C-160.40332031 184.79894531 -159.53320312 184.07835937 -158.63671875 183.3359375 C-156.1484375 181.39453125 -156.1484375 181.39453125 -153.69140625 179.921875 C-151.13013583 178.23977971 -149.80464516 176.98721124 -148.1484375 174.39453125 C-147.85552456 171.80726111 -147.77067087 169.55248427 -147.8515625 166.97265625 C-147.86393448 166.20101639 -147.87630646 165.42937653 -147.88905334 164.63435364 C-148.12630135 153.40179924 -148.76353619 142.17527697 -149.37524414 130.95825195 C-149.5879641 127.04474691 -149.79152633 123.13083684 -149.99414062 119.21679688 C-150.12706742 116.71741931 -150.26051175 114.21806921 -150.39453125 111.71875 C-150.4549913 110.55421799 -150.51545135 109.38968597 -150.57774353 108.18986511 C-150.63773026 107.10715836 -150.69771698 106.0244516 -150.75952148 104.90893555 C-150.81059555 103.96173141 -150.86166962 103.01452728 -150.91429138 102.03862 C-151.14527083 99.43029078 -151.58450161 96.94970804 -152.1484375 94.39453125 C-154.62967236 94.39453125 -157.54428005 97.06724201 -159.6484375 98.39453125 Z M-320.1484375 117.39453125 C-321.22868408 119.79563342 -321.22868408 119.79563342 -321.1484375 122.39453125 C-319.39730225 126.10714352 -319.39730225 126.10714352 -316.1484375 128.39453125 C-312.54972788 128.78569534 -310.80404131 128.87294484 -307.8359375 126.70703125 C-305.87842011 124.02450743 -305.06891616 122.73442774 -305.1484375 119.39453125 C-307.0818369 115.95772884 -307.0818369 115.95772884 -310.1484375 113.39453125 C-314.99033927 112.40638803 -317.26170549 113.43863924 -320.1484375 117.39453125 Z M-7.1484375 131.39453125 C-7.68210937 132.10996094 -8.21578125 132.82539063 -8.765625 133.5625 C-14.90970605 141.77941116 -21.14876084 149.91916217 -27.41894531 158.04003906 C-27.83756836 158.58241211 -28.25619141 159.12478516 -28.6875 159.68359375 C-29.10547852 160.225 -29.52345703 160.76640625 -29.95410156 161.32421875 C-30.78657008 162.40571631 -31.61668366 163.48903097 -32.44433594 164.57421875 C-34.52823157 167.30632695 -36.63824617 170.00701289 -38.8125 172.66796875 C-39.653655 173.72264894 -40.49480118 174.77733617 -41.3359375 175.83203125 C-42.09261719 176.75886719 -42.84929687 177.68570313 -43.62890625 178.640625 C-46.39827271 183.65965675 -43.7562645 189.66852611 -42.28125 194.98828125 C-39.56623309 203.98693162 -36.48376238 214.07035299 -29.1484375 220.39453125 C-18.0387873 226.29610236 -3.53750938 225.8717332 8.74169922 226.19873047 C15.84490417 226.40884868 22.82504968 227.36911459 29.8515625 228.39453125 C27.42255688 219.63768602 24.26168036 211.17113993 21.08203125 202.66796875 C20.51749628 201.15127439 19.95323676 199.63447749 19.38923645 198.11758423 C17.90985463 194.14106223 16.42667538 190.16596725 14.94268799 186.19116211 C13.4509453 182.19343276 11.9629806 178.19429798 10.47460938 174.1953125 C8.7901673 169.6709903 7.10521685 165.14685831 5.41850281 160.62338257 C5.16128102 159.93350061 4.90405924 159.24361866 4.63904285 158.53283119 C4.13316427 157.17795806 3.62631902 155.82344542 3.11844158 154.4693203 C1.79332648 150.93443377 0.48650315 147.39407424 -0.79623413 143.84356689 C-1.0664397 143.10329569 -1.33664526 142.36302448 -1.61503887 141.60032082 C-2.13358552 140.17902781 -2.64659582 138.75569929 -3.15330982 137.33014488 C-4.29169864 133.66767768 -4.29169864 133.66767768 -7.1484375 131.39453125 Z M90.9140625 152.08203125 C88.63573287 155.11585936 88.63573287 155.11585936 88.7890625 158.01953125 C90.10326125 160.95715199 91.2410956 162.48959595 93.8515625 164.39453125 C97.20413326 164.88344782 99.11545565 164.75263729 102.1640625 163.26953125 C104.48268359 160.6932856 104.71159996 158.8236135 104.8515625 155.39453125 C103.73137351 152.03396429 102.90622151 151.43097059 99.8515625 149.39453125 C95.42113526 148.62402217 94.29073112 148.99273868 90.9140625 152.08203125 Z M-149.1484375 194.39453125 C-150.89402318 195.86258696 -152.66520149 197.30076345 -154.4609375 198.70703125 C-160.20390059 203.33924933 -165.54996846 208.34480983 -170.9296875 213.38671875 C-178.05711438 220.06559509 -185.56241615 226.2448338 -193.1484375 232.39453125 C-191.74609919 235.19920787 -190.2879902 235.23462677 -187.34545898 236.23535156 C-185.79541168 236.76865334 -185.79541168 236.76865334 -184.21405029 237.31272888 C-183.07735901 237.69550491 -181.94066772 238.07828094 -180.76953125 238.47265625 C-179.5905426 238.87641983 -178.41155396 239.28018341 -177.19683838 239.69618225 C-173.99253762 240.79228224 -170.78620463 241.88199747 -167.57870102 242.96866226 C-162.27007802 244.76914366 -156.9663064 246.58392133 -151.66164589 248.39603615 C-149.65919957 249.07978548 -147.65640712 249.76251452 -145.65361023 250.44523621 C-137.60405252 253.19238336 -129.57701131 255.99721622 -121.5703125 258.8671875 C-120.63602921 259.20074249 -119.70174591 259.53429749 -118.739151 259.87796021 C-111.70888941 262.38847312 -111.70888941 262.38847312 -108.31271362 263.62780762 C-105.99467318 264.47338613 -103.6718908 265.30444465 -101.34765625 266.1328125 C-100.68260071 266.38072037 -100.01754517 266.62862823 -99.33233643 266.88404846 C-95.56412821 268.21009935 -92.97190415 268.68357831 -89.1484375 267.39453125 C-87.35209452 266.04276753 -87.35209452 266.04276753 -85.8359375 264.26953125 C-83.48597305 261.77866957 -81.12423738 259.43550609 -78.5234375 257.20703125 C-74.82129122 254.01627093 -71.23011405 250.71880198 -67.6484375 247.39453125 C-63.53007527 243.57582488 -59.38467898 239.80380118 -55.13671875 236.12890625 C-51.09447272 232.6028606 -47.12807995 228.99088847 -43.1484375 225.39453125 C-46.88934911 216.10840983 -50.77008473 206.90468252 -54.90234375 197.78515625 C-55.31327271 196.87523926 -55.72420166 195.96532227 -56.14758301 195.02783203 C-57.14661322 192.81616079 -58.14691221 190.60507345 -59.1484375 188.39453125 C-67.23358166 187.86730719 -75.31904525 187.34539769 -83.40494633 186.82992554 C-87.16116434 186.59030828 -90.91725546 186.34898864 -94.6730957 186.10351562 C-98.31034451 185.86586076 -101.94787477 185.63302065 -105.58563042 185.40325928 C-106.96051075 185.31562189 -108.3352891 185.22636596 -109.70994759 185.13531494 C-114.18781841 184.83941555 -118.66544919 184.59801727 -123.1484375 184.39453125 C-123.82005291 184.35889069 -124.49166832 184.32325012 -125.18363571 184.28652954 C-127.20756337 184.18665408 -129.23009343 184.1202754 -131.25561523 184.0625 C-132.4415477 184.01891357 -133.62748016 183.97532715 -134.84934998 183.93041992 C-141.28377416 184.83560632 -144.89975304 189.85834183 -149.1484375 194.39453125 Z M-320.1484375 192.39453125 C-321.08596399 195.54194162 -321.44364607 197.50890553 -320.3984375 200.64453125 C-318.42419006 203.40847767 -316.57491482 204.32036128 -313.2734375 204.89453125 C-309.88236574 204.64573513 -309.88236574 204.64573513 -307.2109375 201.70703125 C-304.93260787 198.67320314 -304.93260787 198.67320314 -305.0859375 195.76953125 C-306.40013625 192.83191051 -307.5379706 191.29946655 -310.1484375 189.39453125 C-314.45934887 188.76585667 -317.17835614 189.09444085 -320.1484375 192.39453125 Z M91.5390625 211.08203125 C89.62477622 213.70531245 88.93077875 215.14666505 88.8515625 218.39453125 C90.60269775 222.10714352 90.60269775 222.10714352 93.8515625 224.39453125 C97.09036931 224.67616662 99.21826341 224.7026227 102.1640625 223.26953125 C104.51446834 220.6579692 104.78177732 218.88379047 104.8515625 215.39453125 C103.11811375 211.66609161 103.11811375 211.66609161 99.8515625 209.39453125 C96.25285288 209.00336716 94.50716631 208.91611766 91.5390625 211.08203125 Z M-41.1484375 243.39453125 C-42.37125808 244.52872429 -43.61705193 245.6394475 -44.8984375 246.70703125 C-48.5176146 249.8143327 -52.02628205 253.02665004 -55.5234375 256.26953125 C-63.27733973 263.45201092 -71.08558707 270.55863632 -79.1484375 277.39453125 C-77.84795374 281.01095586 -76.30354849 283.78123659 -73.9453125 286.80859375 C-73.30207031 287.64197266 -72.65882813 288.47535156 -71.99609375 289.33398438 C-71.30386719 290.22021484 -70.61164063 291.10644531 -69.8984375 292.01953125 C-68.43360642 293.91697402 -66.97008905 295.81543162 -65.5078125 297.71484375 C-64.77240234 298.66907227 -64.03699219 299.62330078 -63.27929688 300.60644531 C-60.17978653 304.66194578 -57.1599166 308.77346785 -54.1484375 312.89453125 C-48.38607033 320.76601647 -42.50258994 328.53963836 -36.56445312 336.27929688 C-33.00380409 340.92661398 -29.51891462 345.60728927 -26.1484375 350.39453125 C-21.1984375 349.40453125 -16.2484375 348.41453125 -11.1484375 347.39453125 C-11.14432861 346.11811768 -11.14021973 344.8417041 -11.13598633 343.52661133 C-11.11418671 338.78320131 -11.05988804 334.0406198 -10.99584961 329.29760742 C-10.97267691 327.24625601 -10.95827561 325.19478575 -10.95288086 323.14331055 C-10.94358607 320.19114175 -10.90258386 317.24084039 -10.85546875 314.2890625 C-10.8594014 313.37429642 -10.86333405 312.45953033 -10.86738586 311.51704407 C-10.76588335 307.07047403 -10.6714138 305.04918473 -7.82226562 301.48266602 C-6.93990234 300.79358154 -6.05753906 300.10449707 -5.1484375 299.39453125 C-4.24871216 298.53239014 -4.24871216 298.53239014 -3.33081055 297.65283203 C-1.50041571 295.94039776 0.33019214 294.22824474 2.1640625 292.51953125 C2.83268311 291.89602783 3.50130371 291.27252441 4.19018555 290.63012695 C8.05759854 287.03394614 11.95376445 283.4841396 15.95703125 280.0390625 C19.13680143 277.27889086 22.24247976 274.43622279 25.359375 271.60546875 C27.8515625 269.39453125 27.8515625 269.39453125 31.1328125 267.296875 C34.62784822 263.56582394 34.48171995 261.44242771 34.37890625 256.49023438 C34.32863281 255.53052734 34.27835937 254.57082031 34.2265625 253.58203125 C34.19949219 252.60298828 34.17242187 251.62394531 34.14453125 250.61523438 C34.07401898 248.20606504 33.97554818 245.80144306 33.8515625 243.39453125 C31.66282423 243.07638356 29.47400344 242.75880368 27.28515625 242.44140625 C26.59187729 242.34072845 25.89859833 242.24005066 25.18431091 242.13632202 C21.30099209 241.57409203 17.41662258 241.02128554 13.52978516 240.48388672 C6.3677648 239.49036648 -0.78192573 238.48835909 -7.90336609 237.23205566 C-10.69415136 236.74441659 -13.49036204 236.29474125 -16.28829956 235.85021973 C-18.23426004 235.52605751 -20.17130371 235.14974643 -22.10766602 234.77246094 C-31.83997073 233.2696157 -35.20676575 235.89401488 -41.1484375 243.39453125 Z M-282.1484375 297.39453125 C-284.50462292 300.28052513 -284.50462292 300.28052513 -283.9609375 303.89453125 C-283.09311635 307.91974599 -283.09311635 307.91974599 -280.1484375 310.39453125 C-277.78381258 311.40088371 -277.78381258 311.40088371 -275.1484375 311.39453125 C-271.43582523 309.643396 -271.43582523 309.643396 -269.1484375 306.39453125 C-268.64812544 302.97881272 -268.64812544 302.97881272 -269.1484375 299.39453125 C-271.27529679 296.84280265 -271.27529679 296.84280265 -274.1484375 295.39453125 C-277.92992826 295.39453125 -279.1127865 295.47195228 -282.1484375 297.39453125 Z M-215.1484375 345.39453125 C-215.78578212 349.36023113 -215.76843422 351.42733637 -213.5859375 354.83203125 C-210.18124262 357.01452797 -208.11413738 357.03187587 -204.1484375 356.39453125 C-201.47005177 354.46327023 -201.47005177 354.46327023 -200.1484375 351.39453125 C-200.1484375 347.5450383 -200.28254369 345.3531994 -202.8984375 342.45703125 C-208.05540834 340.02179502 -211.38497185 341.20095524 -215.1484375 345.39453125 Z " fill="#ffbc5e" transform="translate(364.1484375,71.60546875)"/>
<path d="M0 0 C1.02463852 -0.00960754 2.04927704 -0.01921509 3.10496521 -0.02911377 C4.20607132 -0.03336365 5.30717743 -0.03761353 6.44165039 -0.04199219 C7.57832657 -0.04769226 8.71500275 -0.05339233 9.88612366 -0.05926514 C12.28930736 -0.06870705 14.69250397 -0.07524591 17.09570312 -0.07910156 C20.77179467 -0.08882089 24.44733032 -0.11985825 28.12329102 -0.15136719 C30.45857416 -0.15789611 32.79386129 -0.16314702 35.12915039 -0.16699219 C36.22823227 -0.17933899 37.32731415 -0.19168579 38.45970154 -0.20440674 C39.48749222 -0.20140564 40.5152829 -0.19840454 41.57421875 -0.1953125 C42.92512856 -0.20078094 42.92512856 -0.20078094 44.30332947 -0.20635986 C47.70805865 0.28460511 50.4056203 1.71494647 52.85180664 4.16113281 C53.42488545 10.23576824 53.42488545 10.23576824 51.4855957 13.3671875 C47.34533646 16.18723059 43.29028752 15.65422651 38.39868164 15.55175781 C37.38332336 15.54609802 36.36796509 15.54043823 35.32183838 15.53460693 C32.08134663 15.51223034 28.84196374 15.46203036 25.60180664 15.41113281 C23.40390595 15.39106953 21.20598792 15.37281846 19.00805664 15.35644531 C13.62226214 15.31236152 8.23711361 15.24543654 2.85180664 15.16113281 C2.85846848 15.71379318 2.86513031 16.26645355 2.87199402 16.83586121 C2.93843147 22.59469783 2.98364206 28.35342533 3.01660156 34.11254883 C3.03167579 36.26103132 3.05213853 38.40948311 3.078125 40.55786133 C3.11456778 43.64835189 3.13154683 46.73843512 3.14477539 49.82910156 C3.16025925 50.7876152 3.1757431 51.74612885 3.19169617 52.73368835 C3.19385293 61.30537889 3.19385293 61.30537889 -0.14819336 65.16113281 C-3.81068543 66.4350431 -5.43054468 66.49603553 -8.96069336 64.84863281 C-11.14819336 63.16113281 -11.14819336 63.16113281 -12.14819336 61.16113281 C-12.2541867 59.39542924 -12.29698099 57.62577256 -12.30932617 55.85693359 C-12.31893372 54.74883331 -12.32854126 53.64073303 -12.33843994 52.49905396 C-12.34268982 51.2969931 -12.3469397 50.09493225 -12.35131836 48.85644531 C-12.35701843 47.62578339 -12.36271851 46.39512146 -12.36859131 45.12716675 C-12.37805135 42.51951968 -12.38457926 39.91186061 -12.38842773 37.30419922 C-12.39282169 34.62893092 -12.40674609 31.95398347 -12.42944336 29.27880859 C-12.4598382 25.42958734 -12.47046846 21.58077306 -12.47631836 17.73144531 C-12.48866516 16.53343292 -12.50101196 15.33542053 -12.51373291 14.10110474 C-12.50923126 12.42949783 -12.50923126 12.42949783 -12.50463867 10.72412109 C-12.5082843 9.74420197 -12.51192993 8.76428284 -12.51568604 7.75466919 C-12.07996554 4.67962297 -11.34413482 3.34066697 -9.14819336 1.16113281 C-6.1590156 -0.0243391 -3.19149523 0.02421791 0 0 Z " fill="#ffbc5e" transform="translate(121.148193359375,88.8388671875)"/>
<path d="M0 0 C2.73797737 2.209467 3.86176498 4.0524403 4.37133789 7.54541016 C4.5313182 10.81819607 4.55409059 14.06709061 4.53125 17.34375 C4.53699036 19.14652405 4.53699036 19.14652405 4.54284668 20.98571777 C4.54556602 23.52417845 4.53820346 26.06266714 4.52148438 28.60107422 C4.50007721 32.48598724 4.5212876 36.36905074 4.546875 40.25390625 C4.54423173 42.72135825 4.53910678 45.1888091 4.53125 47.65625 C4.53934692 48.81781616 4.54744385 49.97938232 4.55578613 51.17614746 C4.50488016 55.55519919 4.33398828 59.12762682 2.76171875 63.234375 C-2.00870676 66.28420857 -7.19052848 65.66843338 -12.71875 65.59375 C-14.59379211 65.59381042 -14.59379211 65.59381042 -16.50671387 65.59387207 C-19.15036423 65.58850903 -21.79180621 65.57355857 -24.43505859 65.54199219 C-27.81804425 65.50231325 -31.19991753 65.49794745 -34.58309174 65.50545502 C-37.81590477 65.50926769 -41.04850722 65.48843961 -44.28125 65.46875 C-45.49486206 65.46854858 -46.70847412 65.46834717 -47.9588623 65.46813965 C-49.08683228 65.45222778 -50.21480225 65.43631592 -51.37695312 65.41992188 C-52.86443054 65.40729309 -52.86443054 65.40729309 -54.38195801 65.39440918 C-57.40785154 64.93855699 -58.79731583 64.09158142 -61 62 C-61.69328139 59.29238135 -61.48101248 56.74291641 -61 54 C-59.18836733 51.32568511 -58.12238923 51.04079641 -55 50 C-53.54218278 49.91369074 -52.08072526 49.88229019 -50.62036133 49.88647461 C-49.29933159 49.88658791 -49.29933159 49.88658791 -47.95161438 49.88670349 C-47.00465195 49.89186478 -46.05768951 49.89702606 -45.08203125 49.90234375 C-44.10965012 49.9037587 -43.13726898 49.90517365 -42.13542175 49.90663147 C-39.02774996 49.91223183 -35.92015004 49.92478438 -32.8125 49.9375 C-30.70638125 49.94251495 -28.60026137 49.94707787 -26.49414062 49.95117188 C-21.32939936 49.96220138 -16.16471187 49.97946625 -11 50 C-11.00888245 49.43259094 -11.01776489 48.86518188 -11.0269165 48.28057861 C-11.11539794 42.37595695 -11.17573731 36.47152354 -11.21972656 30.56640625 C-11.23984419 28.3625524 -11.26714172 26.15875193 -11.30175781 23.95507812 C-11.35026833 20.78762644 -11.37296736 17.62088032 -11.390625 14.453125 C-11.41127014 13.46757629 -11.43191528 12.48202759 -11.45318604 11.46661377 C-11.4554196 4.6603461 -11.4554196 4.6603461 -9.19433594 1.38183594 C-5.92647204 -0.67603118 -3.77256082 -0.60630442 0 0 Z " fill="#ffbc5e" transform="translate(456,372)"/>
</svg>
