<?xml version="1.0" encoding="UTF-8"?>
<svg version="1.1" xmlns="http://www.w3.org/2000/svg" width="512" height="512">
<path d="M0 0 C2.14851637 0.01605367 4.29514505 0.00011119 6.44360352 -0.01904297 C22.79538864 -0.04675324 22.79538864 -0.04675324 29.34008789 5.03955078 C29.77450195 5.60931641 30.20891602 6.17908203 30.65649414 6.76611328 C31.10895508 7.33072266 31.56141602 7.89533203 32.02758789 8.47705078 C34.48066353 12.41805755 35.47112853 15.84216016 35.41430664 20.47314453 C35.40463867 21.87016602 35.40463867 21.87016602 35.39477539 23.29541016 C35.36963867 24.7349707 35.36963867 24.7349707 35.34399414 26.20361328 C35.3349707 27.18265625 35.32594727 28.16169922 35.31665039 29.17041016 C35.29316596 31.5775639 35.26032254 33.98421071 35.21899414 36.39111328 C35.95593506 36.53943604 36.69287598 36.68775879 37.45214844 36.84057617 C48.08463707 39.05629208 59.15996548 43.35176084 68.21899414 49.39111328 C71.40611035 49.32429743 72.3843715 48.2312051 74.69946289 45.99267578 C75.60398269 45.00247165 76.50622998 44.01018809 77.40649414 43.01611328 C82.62561756 37.56142261 86.8811193 34.56243021 94.53149414 34.31689453 C105.13427069 34.94374787 111.34646396 42.07639849 118.40649414 49.26611328 C119.29530273 50.15169922 120.18411133 51.03728516 121.09985352 51.94970703 C133.28100819 64.23153241 133.28100819 64.23153241 133.53149414 73.57861328 C133.3795581 81.8591277 130.87028666 85.88990031 124.95458984 91.61962891 C123.93419762 92.58128541 122.89630993 93.52475597 121.84082031 94.44775391 C120.17910913 95.90706595 120.17910913 95.90706595 118.21899414 98.39111328 C118.16200657 102.75066268 120.62905563 106.60366417 122.53149414 110.45361328 C130.21899414 126.46578611 130.21899414 126.46578611 130.21899414 134.39111328 C131.06494141 134.36754761 131.06494141 134.36754761 131.92797852 134.34350586 C134.52487849 134.28049754 137.12161689 134.2419173 139.71899414 134.20361328 C140.60586914 134.17847656 141.49274414 134.15333984 142.40649414 134.12744141 C149.2615328 134.05183436 154.95863278 134.72715948 160.46118164 139.22314453 C161.00000977 139.87669922 161.53883789 140.53025391 162.09399414 141.20361328 C162.64829102 141.84943359 163.20258789 142.49525391 163.77368164 143.16064453 C168.182523 149.96455916 167.59130256 157.60597361 167.58959961 165.39355469 C167.59395558 167.6213936 167.63027516 169.84722 167.66821289 172.07470703 C167.73584485 180.56676338 167.6607171 189.25299573 161.80664062 196.02490234 C155.75206764 201.44852815 149.64213025 201.75370301 141.90649414 202.01611328 C140.97514648 202.05478516 140.04379883 202.09345703 139.08422852 202.13330078 C136.79601007 202.22717641 134.50779119 202.31285837 132.21899414 202.39111328 C131.87868164 203.42107422 131.53836914 204.45103516 131.18774414 205.51220703 C127.58016545 216.19210625 123.20251743 226.2849328 118.21899414 236.39111328 C119.05043945 237.18775391 119.88188477 237.98439453 120.73852539 238.80517578 C121.83658222 239.87507731 122.93421617 240.94541298 124.03149414 242.01611328 C124.57870117 242.53818359 125.1259082 243.06025391 125.68969727 243.59814453 C130.44620064 248.26816603 133.63624509 252.73156747 133.71899414 259.64111328 C133.49707686 266.44657652 131.32293337 272.16272365 126.56274414 277.11376953 C125.28360874 278.21675281 123.97781482 279.28927104 122.65258789 280.33642578 C120.0698862 282.51700538 117.80053519 284.86505962 115.47363281 287.31103516 C109.19031949 293.87447311 103.67329178 299.27531109 94.15649414 299.82861328 C85.60776065 298.878754 80.91142004 295.82728356 75.21899414 289.70361328 C74.63504883 289.09710938 74.05110352 288.49060547 73.44946289 287.86572266 C72.02747763 286.38545931 70.62150904 284.88983728 69.21899414 283.39111328 C68.68121338 283.64280273 68.14343262 283.89449219 67.58935547 284.15380859 C41.30607022 296.39111328 41.30607022 296.39111328 33.21899414 296.39111328 C33.23994141 296.98537109 33.26088867 297.57962891 33.2824707 298.19189453 C33.36641268 300.92479033 33.41789696 303.65741385 33.46899414 306.39111328 C33.50250977 307.32568359 33.53602539 308.26025391 33.57055664 309.22314453 C33.66778494 316.17496759 32.5672247 321.59153856 27.87695312 326.9140625 C22.31407023 332.02899617 15.72657958 332.72005642 8.46899414 332.57861328 C7.3834021 332.56459473 7.3834021 332.56459473 6.27587891 332.55029297 C3.92308995 332.51111749 1.57132944 332.4513809 -0.78100586 332.39111328 C-1.60938965 332.37709473 -2.43777344 332.36307617 -3.29125977 332.34863281 C-5.80982508 332.30167897 -8.32594764 332.22570999 -10.84350586 332.14111328 C-11.61597656 332.12717529 -12.38844727 332.1132373 -13.18432617 332.09887695 C-18.75409893 331.856058 -23.13380161 330.53406382 -27.78100586 327.39111328 C-29.62084961 325.35595703 -29.62084961 325.35595703 -30.71850586 323.32861328 C-31.0987793 322.65701172 -31.47905273 321.98541016 -31.87084961 321.29345703 C-33.3905753 318.11703466 -33.93415951 315.41684274 -34.09741211 311.94189453 C-34.13930664 311.09433594 -34.18120117 310.24677734 -34.22436523 309.37353516 C-34.26368164 308.49246094 -34.30299805 307.61138672 -34.34350586 306.70361328 C-34.38668945 305.8109375 -34.42987305 304.91826172 -34.47436523 303.99853516 C-34.58035939 301.7962122 -34.68242637 299.59377855 -34.78100586 297.39111328 C-35.8109668 297.05080078 -36.84092773 296.71048828 -37.90209961 296.35986328 C-48.58199883 292.75228459 -58.67482538 288.37463657 -68.78100586 283.39111328 C-69.57764648 284.22255859 -70.37428711 285.05400391 -71.19506836 285.91064453 C-72.26496989 287.00870136 -73.33530555 288.10633531 -74.40600586 289.20361328 C-74.92807617 289.75082031 -75.45014648 290.29802734 -75.98803711 290.86181641 C-79.97589617 294.92352471 -83.69336619 297.8972689 -89.49194336 298.82470703 C-90.37108398 298.82599609 -91.25022461 298.82728516 -92.15600586 298.82861328 C-93.46698242 298.85761719 -93.46698242 298.85761719 -94.80444336 298.88720703 C-103.77519262 297.39208215 -109.42449399 291.4054233 -115.56420898 285.18432617 C-117.02663819 283.70802238 -118.51150238 282.25734161 -119.99975586 280.80712891 C-126.27941286 274.57938302 -131.74072457 268.45328989 -132.21850586 259.26611328 C-131.39141299 251.94043361 -128.67733035 247.86172998 -123.79272461 242.57861328 C-121.04032003 239.58570734 -118.41521774 236.48801129 -115.78100586 233.39111328 C-116.03269531 232.88362549 -116.28438477 232.3761377 -116.54370117 231.85327148 C-128.78100586 207.02814353 -128.78100586 207.02814353 -128.78100586 198.39111328 C-129.41079346 198.41206055 -130.04058105 198.43300781 -130.68945312 198.45458984 C-133.57397157 198.53831427 -136.45823354 198.58994949 -139.34350586 198.64111328 C-140.33415039 198.67462891 -141.32479492 198.70814453 -142.34545898 198.74267578 C-148.77800864 198.82815817 -152.54988052 198.20748837 -157.78100586 194.39111328 C-164.97256637 187.19955277 -165.0646672 179.49667003 -165.10327148 169.84033203 C-165.10000854 168.77371338 -165.10000854 168.77371338 -165.09667969 167.68554688 C-165.09352368 165.52829225 -165.11701146 163.37241737 -165.14233398 161.21533203 C-165.22314477 144.5353122 -165.22314477 144.5353122 -159.80834961 138.01611328 C-158.77387695 137.21173828 -158.77387695 137.21173828 -157.71850586 136.39111328 C-157.0262793 135.83423828 -156.33405273 135.27736328 -155.62084961 134.70361328 C-152.5332247 132.5009764 -150.53022 132.22585178 -146.77319336 132.07470703 C-145.29399414 132.01186523 -145.29399414 132.01186523 -143.78491211 131.94775391 C-142.75237305 131.9084375 -141.71983398 131.86912109 -140.65600586 131.82861328 C-139.61573242 131.78542969 -138.57545898 131.74224609 -137.50366211 131.69775391 C-134.92958058 131.59148449 -132.35540078 131.48944745 -129.78100586 131.39111328 C-129.44069336 130.26576172 -129.10038086 129.14041016 -128.74975586 127.98095703 C-125.99609833 119.17021743 -122.94262214 111.04375525 -118.23413086 103.07641602 C-117.34949005 101.55156339 -116.55675317 99.97414234 -115.78100586 98.39111328 C-116.91048851 95.00266532 -117.81501505 94.32615852 -120.53100586 92.14111328 C-125.66028497 87.79457874 -130.32941652 82.9736346 -131.01928711 75.97314453 C-131.05602539 74.60222656 -131.05602539 74.60222656 -131.09350586 73.20361328 C-131.14958008 71.85203125 -131.14958008 71.85203125 -131.20678711 70.47314453 C-130.02611475 61.92680973 -124.51266492 56.55011752 -118.53100586 50.76611328 C-117.80526367 50.04166016 -117.07952148 49.31720703 -116.33178711 48.57080078 C-101.64787725 34.12246167 -101.64787725 34.12246167 -91.34350586 34.07861328 C-90.43729492 34.06185547 -89.53108398 34.04509766 -88.59741211 34.02783203 C-81.62456858 34.92724181 -77.54126522 39.23885718 -72.90600586 44.07861328 C-72.01655273 44.98836914 -72.01655273 44.98836914 -71.10913086 45.91650391 C-69.65944664 47.40126113 -68.21924118 48.89526319 -66.78100586 50.39111328 C-66.04333984 50.02143433 -66.04333984 50.02143433 -65.29077148 49.64428711 C-54.3388924 44.19758308 -43.58299834 39.63055673 -31.78100586 36.39111328 C-31.7669873 35.49972656 -31.7669873 35.49972656 -31.75268555 34.59033203 C-31.69847593 31.85646683 -31.61493307 29.12422129 -31.53100586 26.39111328 C-31.51682617 25.45654297 -31.50264648 24.52197266 -31.48803711 23.55908203 C-31.22954211 16.16612505 -29.77920442 10.47259513 -24.53100586 5.07861328 C-16.53058994 0.16926715 -9.17760712 -0.08157873 0 0 Z M-12.78100586 18.39111328 C-14.16961053 21.16832261 -13.94426602 23.50190005 -13.99194336 26.60595703 C-14.02030273 27.84925781 -14.04866211 29.09255859 -14.07788086 30.37353516 C-14.12988424 33.00620627 -14.1741792 35.63904116 -14.21069336 38.27197266 C-14.24163086 39.5165625 -14.27256836 40.76115234 -14.30444336 42.04345703 C-14.3242627 43.18806396 -14.34408203 44.3326709 -14.36450195 45.51196289 C-14.78100586 48.39111328 -14.78100586 48.39111328 -16.06787109 50.21655273 C-17.96750793 51.51898295 -19.42225655 52.03790063 -21.66772461 52.53173828 C-22.4335083 52.71148193 -23.19929199 52.89122559 -23.98828125 53.07641602 C-24.80675537 53.26276611 -25.62522949 53.44911621 -26.46850586 53.64111328 C-38.92335737 56.70167897 -49.8464336 61.42711587 -60.74194336 68.22314453 C-63.4986996 69.80220606 -65.59628985 70.46349319 -68.78100586 70.39111328 C-74.86924291 68.11026931 -78.73682444 63.77862479 -83.15600586 59.20361328 C-83.89206055 58.45402344 -84.62811523 57.70443359 -85.38647461 56.93212891 C-87.19167229 55.09176504 -88.98946094 53.24475406 -90.78100586 51.39111328 C-94.83465577 53.24811073 -97.53789343 55.96211966 -100.59350586 59.14111328 C-104.82196753 63.46256495 -109.09606446 67.55797941 -113.78100586 71.39111328 C-112.39503719 74.52516996 -110.7902943 76.6094551 -108.33959961 78.99267578 C-107.67379883 79.64751953 -107.00799805 80.30236328 -106.32202148 80.97705078 C-105.28078125 81.98638672 -105.28078125 81.98638672 -104.21850586 83.01611328 C-102.84002049 84.36023198 -101.46361185 85.70648481 -100.08959961 87.05517578 C-99.17392212 87.94390381 -99.17392212 87.94390381 -98.23974609 88.85058594 C-96.0246428 91.1898833 -95.78632633 92.33098464 -95.49584961 95.61376953 C-95.82765944 100.00911348 -97.00032225 102.12487144 -99.34350586 105.82861328 C-106.75426036 118.06894126 -111.43328946 130.51428887 -114.78100586 144.39111328 C-115.11100586 145.38111328 -115.44100586 146.37111328 -115.78100586 147.39111328 C-119.01851566 148.47028322 -121.53874194 148.579324 -124.94506836 148.67236328 C-126.14905273 148.70974609 -127.35303711 148.74712891 -128.59350586 148.78564453 C-131.14297906 148.85617299 -133.69245828 148.92648417 -136.24194336 148.99658203 C-138.04405273 149.05265625 -138.04405273 149.05265625 -139.88256836 149.10986328 C-140.98938965 149.14015625 -142.09621094 149.17044922 -143.23657227 149.20166016 C-145.71536301 149.10792028 -145.71536301 149.10792028 -146.78100586 150.39111328 C-146.88112987 152.59761984 -146.91181766 154.80733715 -146.91381836 157.01611328 C-146.91477509 157.67820801 -146.91573181 158.34030273 -146.91671753 159.02246094 C-146.91739912 160.42464289 -146.91554628 161.82682799 -146.91137695 163.22900391 C-146.90602832 165.38207041 -146.91132256 167.5349283 -146.91772461 169.68798828 C-146.91706382 171.04736374 -146.91578265 172.40673908 -146.91381836 173.76611328 C-146.91269043 175.01134766 -146.9115625 176.25658203 -146.91040039 177.53955078 C-147.10672713 180.29016759 -147.10672713 180.29016759 -145.78100586 181.39111328 C-143.84016982 181.48841909 -141.89613566 181.52315247 -139.95288086 181.53173828 C-138.76049805 181.55107422 -137.56811523 181.57041016 -136.33959961 181.59033203 C-133.81632055 181.62397575 -131.29278909 181.64239907 -128.76928711 181.64501953 C-119.67903606 181.83093425 -119.67903606 181.83093425 -115.56225586 184.39892578 C-113.29638775 188.20518669 -112.41288664 191.70821136 -111.53100586 196.01611328 C-108.76317598 207.92370537 -103.70094277 218.72362183 -97.54663086 229.25439453 C-95.51028928 232.87205447 -94.86989316 234.33252033 -95.78100586 238.39111328 C-98.53324493 242.48325822 -102.15240463 245.81148523 -105.73022461 249.17236328 C-106.23384521 249.65358643 -106.73746582 250.13480957 -107.25634766 250.63061523 C-108.7287422 252.02897745 -110.22328767 253.40390149 -111.71850586 254.77783203 C-114.05085467 257.14756995 -114.05085467 257.14756995 -113.67578125 259.76416016 C-112.55580426 263.05227813 -111.0113595 264.61719285 -108.52709961 267.03564453 C-107.6730957 267.87675781 -106.8190918 268.71787109 -105.93920898 269.58447266 C-105.04137695 270.44878906 -104.14354492 271.31310547 -103.21850586 272.20361328 C-102.31680664 273.08726562 -101.41510742 273.97091797 -100.48608398 274.88134766 C-98.2597802 277.0605339 -96.02468327 279.22984245 -93.78100586 281.39111328 C-90.54721625 279.55993538 -87.88731068 277.73711469 -85.30053711 275.07080078 C-84.6940332 274.45333984 -84.0875293 273.83587891 -83.46264648 273.19970703 C-82.53742188 272.24257813 -82.53742188 272.24257813 -81.59350586 271.26611328 C-80.35225711 269.99049149 -79.1088679 268.71694792 -77.86303711 267.44580078 C-77.31881104 266.8836084 -76.77458496 266.32141602 -76.21386719 265.7421875 C-74.19591049 263.8394149 -72.93525546 263.41163378 -70.16772461 263.04345703 C-65.52673429 263.5198678 -62.52079314 265.54991693 -58.59350586 267.95361328 C-47.0894973 274.67582077 -34.64221603 279.64992107 -21.59350586 282.49267578 C-18.86255112 283.8463818 -18.13584783 285.69964336 -16.78100586 288.39111328 C-16.36450195 291.23779297 -16.36450195 291.23779297 -16.30444336 294.31298828 C-16.25803711 295.97394531 -16.25803711 295.97394531 -16.21069336 297.66845703 C-16.19264648 298.81443359 -16.17459961 299.96041016 -16.15600586 301.14111328 C-16.10525005 303.42766227 -16.05077356 305.71413279 -15.99194336 308.00048828 C-15.97437988 309.01079102 -15.95681641 310.02109375 -15.9387207 311.06201172 C-16.04019761 313.35116117 -16.04019761 313.35116117 -14.78100586 314.39111328 C-12.56245322 314.4789487 -10.3411209 314.49805937 -8.12084961 314.48876953 C-7.45638321 314.48735458 -6.79191681 314.48593964 -6.10731506 314.48448181 C-3.97766687 314.47886846 -1.84812246 314.46631382 0.28149414 314.45361328 C1.72224783 314.4486 3.16300317 314.44403679 4.60375977 314.43994141 C8.14220516 314.42889473 11.68058953 314.4116212 15.21899414 314.39111328 C16.5809625 311.66717656 16.38136792 309.44094498 16.42993164 306.39501953 C16.45829102 305.19683594 16.48665039 303.99865234 16.51586914 302.76416016 C16.56786938 300.22784851 16.6121653 297.69136698 16.64868164 295.15478516 C16.67961914 293.9553125 16.71055664 292.75583984 16.74243164 291.52001953 C16.76225098 290.41730713 16.78207031 289.31459473 16.80249023 288.1784668 C17.21899414 285.39111328 17.21899414 285.39111328 18.48510742 283.58862305 C20.47503053 282.21428162 22.08734889 281.6662068 24.43774414 281.10205078 C25.69917236 280.77986572 25.69917236 280.77986572 26.98608398 280.45117188 C28.33887451 280.11206787 28.33887451 280.11206787 29.71899414 279.76611328 C41.93054323 276.50616982 53.16875081 271.53359431 64.07446289 265.16064453 C67.6963563 263.12248588 69.156389 262.47909988 73.21899414 263.39111328 C77.31113908 266.14335235 80.63936609 269.76251206 84.00024414 273.34033203 C84.72207886 274.09576294 84.72207886 274.09576294 85.45849609 274.86645508 C86.85685831 276.33884962 88.23178235 277.8333951 89.60571289 279.32861328 C91.9754508 281.66096209 91.9754508 281.66096209 94.59204102 281.28588867 C97.88015899 280.16591169 99.44507371 278.62146692 101.86352539 276.13720703 C102.70463867 275.28320312 103.54575195 274.42919922 104.41235352 273.54931641 C105.27666992 272.65148437 106.14098633 271.75365234 107.03149414 270.82861328 C107.91514648 269.92691406 108.79879883 269.02521484 109.70922852 268.09619141 C111.88841476 265.86988762 114.05772331 263.63479069 116.21899414 261.39111328 C114.38781624 258.15732368 112.56499555 255.4974181 109.89868164 252.91064453 C109.2812207 252.30414063 108.66375977 251.69763672 108.02758789 251.07275391 C107.07045898 250.1475293 107.07045898 250.1475293 106.09399414 249.20361328 C104.81837235 247.96236453 103.54482878 246.71897532 102.27368164 245.47314453 C101.43039307 244.65680542 101.43039307 244.65680542 100.57006836 243.82397461 C98.66729576 241.80601791 98.23951464 240.54536289 97.87133789 237.77783203 C98.34774866 233.13684171 100.37779779 230.13090056 102.78149414 226.20361328 C109.55766168 214.60726052 114.30573146 202.15287375 117.51586914 189.10595703 C118.21899414 187.39111328 118.21899414 187.39111328 121.21899414 185.39111328 C123.91455078 185.08813477 123.91455078 185.08813477 127.12915039 185.01220703 C128.28350586 184.97804688 129.43786133 184.94388672 130.62719727 184.90869141 C132.43607422 184.86905273 132.43607422 184.86905273 134.28149414 184.82861328 C136.66831737 184.76884733 139.05504859 184.70524319 141.44165039 184.63720703 C142.50134033 184.61327881 143.56103027 184.58935059 144.65283203 184.56469727 C147.20740739 184.55766907 147.20740739 184.55766907 149.21899414 183.39111328 C149.24365036 179.13696705 149.26183313 174.8828583 149.27392578 170.62866211 C149.27896515 169.18041256 149.28579667 167.73216811 149.29443359 166.28393555 C149.30651661 164.2063674 149.31222625 162.12886631 149.31665039 160.05126953 C149.32188721 158.79967041 149.32712402 157.54807129 149.33251953 156.25854492 C149.54786449 153.49379034 149.54786449 153.49379034 148.21899414 152.39111328 C146.26743946 152.25714057 144.31139846 152.18754377 142.35571289 152.14501953 C140.56037109 152.09571289 140.56037109 152.09571289 138.72875977 152.04541016 C136.19238585 151.98449571 133.65592306 151.92717006 131.11938477 151.87353516 C129.91862305 151.839375 128.71786133 151.80521484 127.48071289 151.77001953 C126.37687256 151.74496338 125.27303223 151.71990723 124.13574219 151.6940918 C121.29179281 151.39867528 119.59555597 150.94462944 117.21899414 149.39111328 C116.38305664 147.64111328 116.38305664 147.64111328 115.84399414 145.39111328 C115.47661133 144.03953125 115.47661133 144.03953125 115.10180664 142.66064453 C114.81047852 141.58169922 114.51915039 140.50275391 114.21899414 139.39111328 C110.99222677 127.99750935 106.72068333 117.80993919 100.73852539 107.55981445 C98.64690576 103.84668682 97.28826025 101.10167459 96.87133789 96.82470703 C98.92863542 91.58307072 102.6383068 88.41855083 106.71899414 84.64111328 C108.2960458 83.15068481 109.86916264 81.65607849 111.43774414 80.15673828 C112.13834961 79.50479492 112.83895508 78.85285156 113.56079102 78.18115234 C115.44855965 76.39027611 115.44855965 76.39027611 116.21899414 73.39111328 C113.63670015 70.64013574 111.05297583 67.89050556 108.46899414 65.14111328 C107.37458008 63.97515625 107.37458008 63.97515625 106.25805664 62.78564453 C105.54907227 62.03154297 104.84008789 61.27744141 104.10961914 60.50048828 C103.46025391 59.80922852 102.81088867 59.11796875 102.1418457 58.40576172 C101.50730469 57.74092773 100.87276367 57.07609375 100.21899414 56.39111328 C99.23237793 55.24304199 99.23237793 55.24304199 98.22583008 54.07177734 C96.39709215 52.16902821 96.39709215 52.16902821 94.19897461 52.41845703 C91.78571011 53.60396206 90.36872603 54.98191107 88.53930664 56.95361328 C87.85739258 57.66775391 87.17547852 58.38189453 86.47290039 59.11767578 C85.05727423 60.62940867 83.64578363 62.14502519 82.23852539 63.66455078 C77.0137477 69.11563711 77.0137477 69.11563711 72.98461914 70.51220703 C69.99312397 70.38122349 68.43688142 69.91854779 65.84399414 68.45361328 C64.98418945 67.99083984 64.12438477 67.52806641 63.23852539 67.05126953 C62.24208008 66.50341797 61.24563477 65.95556641 60.21899414 65.39111328 C50.10370351 60.00389361 40.19413409 55.72307929 29.21899414 52.39111328 C26.1849232 51.45189886 23.20689727 50.47294028 20.21899414 49.39111328 C18.82580672 46.60473844 19.0193171 44.21939717 18.93774414 41.10595703 C18.88166992 39.2274707 18.88166992 39.2274707 18.82446289 37.31103516 C18.75404701 34.65218373 18.68373481 31.99332955 18.61352539 29.33447266 C18.55745117 27.45791992 18.55745117 27.45791992 18.50024414 25.54345703 C18.46995117 24.38837646 18.4396582 23.2332959 18.40844727 22.04321289 C18.51554891 19.46935952 18.51554891 19.46935952 17.21899414 18.39111328 C15.0004415 18.30327786 12.77910918 18.28416719 10.55883789 18.29345703 C9.89437149 18.29487198 9.22990509 18.29628693 8.54530334 18.29774475 C6.41565515 18.3033581 4.28611075 18.31591274 2.15649414 18.32861328 C0.71574045 18.33362657 -0.72501489 18.33818977 -2.16577148 18.34228516 C-5.70421688 18.35333183 -9.24260125 18.37060536 -12.78100586 18.39111328 Z " fill="#ffbc5e" transform="translate(254.781005859375,89.60888671875)"/>
<path d="M0 0 C4.06106509 4.16125519 6.46952043 8.49609652 8.8046875 13.77734375 C9.29704391 14.87170494 9.29704391 14.87170494 9.79934692 15.98817444 C10.48489872 17.5213576 11.1653251 19.05684199 11.84082031 20.59448242 C12.8744195 22.93618483 13.93617516 25.26369865 15 27.59179688 C15.66581586 29.09036804 16.32993712 30.58969351 16.9921875 32.08984375 C17.46856155 33.12297951 17.46856155 33.12297951 17.95455933 34.17698669 C19.96402303 38.84851814 20.28509559 42.07912628 19 47 C16.40320527 49.89357127 14.83460553 50.86089908 11 51.5 C7.1784247 50.86307078 5.80678749 49.66494371 3 47 C1.50543279 44.68048691 0.34014925 42.25376791 -0.8125 39.75 C-1.27946289 38.77546875 -1.27946289 38.77546875 -1.75585938 37.78125 C-2.51505446 36.19278029 -3.25910519 34.59708737 -4 33 C-20.36780568 79.87007698 -25.67056016 120.28946411 -12 169 C-11.74766602 169.90024902 -11.49533203 170.80049805 -11.23535156 171.72802734 C-3.37427713 198.94838868 10.41465953 225.67091734 28.65869141 247.3984375 C29.99255725 248.99111314 31.3004906 250.60236218 32.60546875 252.21875 C43.13921486 265.13139974 54.85507553 276.76831307 68.24951172 286.69384766 C70.00889686 288.00663852 71.74148179 289.34951419 73.47265625 290.69921875 C103.46914824 313.78105547 139.88383913 327.7285276 177 334 C177.7110791 334.12455566 178.4221582 334.24911133 179.15478516 334.37744141 C186.83441975 335.66982569 194.43770033 336.04155236 202.20703125 336.1953125 C202.94449081 336.2113855 203.68195038 336.2274585 204.4417572 336.24401855 C208.19201711 336.32363836 211.94007729 336.37988892 215.69116211 336.39550781 C217.09099228 336.41671872 218.49081388 336.43850466 219.890625 336.4609375 C221.13875977 336.46915527 222.38689453 336.47737305 223.67285156 336.48583984 C227.57135643 337.08829444 229.22093339 338.25616822 232 341 C233.42662219 343.85324437 233.31033868 345.83454549 233 349 C230.84909549 352.33761045 229.79587201 353.73470933 226 355 C161.17473196 358.93341163 95.14900856 335.7187878 46.51171875 292.97265625 C43.26830275 290.05592226 40.12822212 287.03924158 37 284 C36.39559082 283.42137207 35.79118164 282.84274414 35.16845703 282.24658203 C26.827814 274.24628659 19.18938817 266.03936458 12.30615234 256.75048828 C10.99336148 254.99110314 9.65048581 253.25851821 8.30078125 251.52734375 C-17.17541937 218.41465426 -32.67786536 177.2612185 -38 136 C-38.0928125 135.29786377 -38.185625 134.59572754 -38.28125 133.87231445 C-42.57612605 97.00407138 -35.32526031 62.331642 -22 28 C-22.71285156 28.3609375 -23.42570312 28.721875 -24.16015625 29.09375 C-34.32899907 34.02078017 -34.32899907 34.02078017 -40 33 C-42.9375 31.5625 -42.9375 31.5625 -45 29 C-45.78198091 25.82468359 -46.02577999 23.11942326 -45 20 C-39.39120808 14.84371542 -32.99280035 11.60690273 -26.22436523 8.21411133 C-24.19354142 7.19054497 -22.17824407 6.14003253 -20.16210938 5.08789062 C-7.20548595 -1.53726748 -7.20548595 -1.53726748 0 0 Z " fill="#ffbc5e" transform="translate(45,149)"/>
<path d="M0 0 C0.8973587 0.00215515 1.79471741 0.0043103 2.7192688 0.00653076 C16.61040292 0.05991132 30.1529069 0.58597075 43.8125 3.3125 C45.33423828 3.61051514 45.33423828 3.61051514 46.88671875 3.91455078 C92.05889524 13.00756279 133.93746985 32.39142306 169.8125 61.3125 C170.78574219 62.08078125 171.75898438 62.8490625 172.76171875 63.640625 C180.29615496 69.77622222 187.19441601 76.51082227 194.0625 83.375 C194.53864746 83.85015045 195.01479492 84.3253009 195.50537109 84.81484985 C203.62390807 92.93531614 203.62390807 92.93531614 204.8125 95.3125 C204.82667969 94.50425781 204.84085937 93.69601563 204.85546875 92.86328125 C205.24285565 84.18372078 205.24285565 84.18372078 207.9375 80.0625 C211.6295262 77.8151797 213.56024133 77.55316809 217.8125 78.3125 C220.60976919 80.33073763 222.50160327 81.92996121 223.28009033 85.3918457 C223.47493922 87.95120146 223.50545593 90.46459362 223.4765625 93.03125 C223.48134613 93.96674683 223.48612976 94.90224365 223.49105835 95.86608887 C223.4944536 97.83961676 223.48527739 99.81320118 223.46435547 101.78662109 C223.43758399 104.80303656 223.46411536 107.81573117 223.49609375 110.83203125 C223.49278958 112.75261236 223.48638321 114.67319116 223.4765625 116.59375 C223.48668365 117.49283081 223.49680481 118.39191162 223.50723267 119.3182373 C223.42959747 123.47749933 223.13855173 125.78307114 220.92163086 129.3828125 C216.42115021 132.17604368 212.60333017 131.99435507 207.40234375 131.90625 C205.8956588 131.90631042 205.8956588 131.90631042 204.35853577 131.90637207 C202.2395297 131.90102045 200.1205239 131.88345313 198.00170898 131.85449219 C194.75768449 131.81259924 191.51573405 131.81342815 188.27148438 131.8203125 C186.21092307 131.80982104 184.15037246 131.79688317 182.08984375 131.78125 C181.11998032 131.78104858 180.15011688 131.78084717 179.15086365 131.78063965 C178.24634964 131.76472778 177.34183563 131.74881592 176.40991211 131.73242188 C175.61669052 131.72400269 174.82346893 131.7155835 174.00621033 131.70690918 C171.25826059 131.21285279 169.86141904 130.17811889 167.8125 128.3125 C167.02734375 126.2265625 167.02734375 126.2265625 166.75 123.9375 C166.63527344 123.18726562 166.52054687 122.43703125 166.40234375 121.6640625 C166.8125 119.3125 166.8125 119.3125 168.546875 116.57421875 C173.49516015 113.14711696 178.23859035 113.530963 184.125 113.5 C185.24712891 113.47486328 186.36925781 113.44972656 187.52539062 113.42382812 C190.28811286 113.3650468 193.04925392 113.3287002 195.8125 113.3125 C183.93226063 98.55842302 170.84600407 84.84719932 155.55712891 73.59960938 C153.73619199 72.25620336 151.93609299 70.8877484 150.13671875 69.515625 C141.71077495 63.14288707 133.04254957 57.44955884 123.8125 52.3125 C122.55953125 51.61423096 122.55953125 51.61423096 121.28125 50.90185547 C65.06415204 19.89562202 0.30516975 9.25363288 -62.1875 26.3125 C-110.33879392 40.26692773 -153.30162254 67.42907541 -184.33203125 107.05078125 C-186.2812281 109.42674962 -187.24774397 110.47256971 -190.1875 111.3125 C-193.97575503 111.17720518 -196.41934073 110.80490979 -199.625 108.75 C-201.37200214 106.02467666 -202.06350171 103.89514744 -201.8828125 100.63671875 C-200.2804342 95.2804542 -195.89431826 91.33673811 -192.1875 87.3125 C-191.30964844 86.32765625 -190.43179688 85.3428125 -189.52734375 84.328125 C-180.12461369 73.82900563 -170.29574307 64.0164932 -159.1875 55.3125 C-157.74503906 54.14460938 -157.74503906 54.14460938 -156.2734375 52.953125 C-111.98571095 17.74718541 -56.29581345 -0.24502362 0 0 Z " fill="#ffbc5e" transform="translate(258.1875,3.6875)"/>
<path d="M0 0 C1.73177823 2.0784289 2.43315365 3.92767608 3.30029297 6.48950195 C3.78912964 7.9293042 3.78912964 7.9293042 4.2878418 9.39819336 C4.62452881 10.43250488 4.96121582 11.46681641 5.30810547 12.5324707 C5.6596167 13.6054541 6.01112793 14.6784375 6.37329102 15.78393555 C9.74235492 26.30791069 12.34798902 36.87413244 14.43310547 47.7199707 C14.59681641 48.50758789 14.76052734 49.29520508 14.92919922 50.10668945 C20.68654854 78.51278485 19.75731693 111.51476834 13.43310547 139.7199707 C13.12759766 141.15179688 13.12759766 141.15179688 12.81591797 142.61254883 C3.74997715 184.22074018 -17.9201378 222.16149031 -46.47314453 253.40356445 C-48.26724436 255.38845475 -49.98091034 257.41417082 -51.69189453 259.4699707 C-61.35586854 270.51770081 -72.83787177 279.96261342 -84.56689453 288.7199707 C-85.11104004 289.13166504 -85.65518555 289.54335938 -86.21582031 289.9675293 C-104.76161925 303.94190779 -125.38323595 315.2891345 -146.56689453 324.7199707 C-145.57947266 325.19047852 -144.59205078 325.66098633 -143.57470703 326.14575195 C-142.28022853 326.77423065 -140.98596901 327.40316051 -139.69189453 328.0324707 C-138.71542969 328.49556641 -138.71542969 328.49556641 -137.71923828 328.96801758 C-134.37013055 330.60804456 -132.67683574 331.55505888 -130.56689453 334.7199707 C-130.06271219 339.35844827 -130.78735056 341.97827689 -133.56689453 345.7199707 C-137.27308301 347.57306494 -141.63712883 347.24591167 -145.56652832 346.17498779 C-147.62959297 345.40193094 -149.63468053 344.55093877 -151.64501953 343.6496582 C-152.37887878 343.33094757 -153.11273804 343.01223694 -153.86883545 342.68386841 C-155.40814647 342.01022255 -156.94420475 341.32909891 -158.47705078 340.64086914 C-160.81480016 339.59590688 -163.16582046 338.58660519 -165.52001953 337.5793457 C-167.020945 336.91737763 -168.52097848 336.25338259 -170.02001953 335.5871582 C-171.06696991 335.14144974 -171.06696991 335.14144974 -172.1350708 334.68673706 C-176.77142161 332.5628664 -179.16061518 330.3973538 -181.56689453 325.7199707 C-181.60558069 320.03310559 -179.42305038 316.32466671 -176.19189453 311.8449707 C-175.28386781 310.54282245 -174.37769161 309.23938227 -173.47314453 307.93481445 C-172.76158203 306.91556885 -172.76158203 306.91556885 -172.03564453 305.87573242 C-170.50318911 303.6264669 -169.0438039 301.34229876 -167.59814453 299.03637695 C-166.86990479 297.87887939 -166.86990479 297.87887939 -166.12695312 296.69799805 C-165.1858513 295.19588554 -164.25104236 293.68980803 -163.32324219 292.17944336 C-162.89060059 291.49543457 -162.45795898 290.81142578 -162.01220703 290.10668945 C-161.63596191 289.50042725 -161.2597168 288.89416504 -160.87207031 288.26953125 C-158.54412414 285.50569392 -156.14692928 284.79401769 -152.62939453 284.3449707 C-148.75902706 284.81889325 -147.23047007 285.90419085 -144.56689453 288.7199707 C-143.03829402 292.25485938 -143.5321077 293.62554931 -144.87939453 297.2824707 C-146.09897962 299.7668107 -147.32707929 302.24575427 -148.56689453 304.7199707 C-129.23730871 296.06101597 -111.27493179 285.77280971 -94.56689453 272.7199707 C-93.59494141 271.96071289 -92.62298828 271.20145508 -91.62158203 270.41918945 C-66.00515095 249.87495769 -44.65172701 225.40864486 -28.56689453 196.7199707 C-28.19612793 196.06738281 -27.82536133 195.41479492 -27.44335938 194.74243164 C0.92459225 144.48510618 6.2890659 85.9786635 -8.7421875 30.57202148 C-10.2087403 25.50030157 -11.872126 20.48919163 -13.73803711 15.55004883 C-15.52602861 10.6572302 -15.95076022 6.8528034 -15.56689453 1.7199707 C-13.7851091 -0.76180186 -12.43434034 -1.87522125 -9.69189453 -3.1550293 C-6.03900837 -3.36990495 -2.83678512 -2.31742979 0 0 Z " fill="#ffbc5e" transform="translate(494.56689453125,161.280029296875)"/>
<path d="M0 0 C1.90265625 -0.03867188 1.90265625 -0.03867188 3.84375 -0.078125 C7.77505074 0.27468404 10.16358608 1.17981546 13.5 3.25 C15.06700442 6.38400885 15.35164561 9.88155095 14.5 13.25 C10.20953033 18.32720824 4.63052856 18.13138525 -1.5625 18.6875 C-14.43582526 20.11173581 -24.03906087 23.37900325 -34.5 31.25 C-35.11488281 31.69988281 -35.72976562 32.14976562 -36.36328125 32.61328125 C-46.30244997 40.43679543 -52.68181787 52.80101831 -54.5 65.25 C-55.42106754 82.5731549 -52.53130142 97.3735191 -40.9375 111 C-29.89408702 122.47389085 -15.06010647 129.12873636 0.875 129.5625 C16.14377912 129.3732958 31.55948702 123.74311122 42.73046875 113.18359375 C53.86570863 101.01594752 59.02794964 86.92509275 58.7578125 70.5625 C58.24123518 63.92526414 56.67280213 57.52025496 53.8125 51.5 C51.90487996 46.77636942 51.50978307 42.66365377 53.5 37.8125 C56.4997958 35.46890953 59.73110455 35.03298107 63.5 35.25 C66.21897162 36.16816019 67.2759498 36.91424206 68.87890625 39.31640625 C70.12576033 41.9459104 71.34187579 44.58009619 72.5 47.25 C72.80164063 47.91902344 73.10328125 48.58804688 73.4140625 49.27734375 C79.91262016 65.85194788 78.37839576 85.71421366 71.96484375 101.98046875 C63.29380881 121.33421873 49.21739533 134.69119677 29.7109375 143.03125 C11.04746145 150.11519711 -10.87579718 149.52320228 -29.23828125 141.70703125 C-36.82808346 138.25556239 -43.3217029 133.82236954 -49.5 128.25 C-50.18449219 127.65832031 -50.86898437 127.06664062 -51.57421875 126.45703125 C-65.16276278 113.93634923 -72.58552182 95.97963066 -73.71875 77.7265625 C-74.2491461 56.28972033 -66.64311698 37.26931252 -52.00390625 21.6640625 C-37.7893068 7.95950328 -19.75731626 0.24094288 0 0 Z " fill="#ffbc5e" transform="translate(254.5,182.75)"/>
<path d="M0 0 C5.52859278 1.43856241 10.31758747 5.61836872 14.296875 9.59765625 C14.85668372 14.47598936 15.04237461 16.51329318 12.234375 20.59765625 C9.296875 22.59765625 9.296875 22.59765625 6.171875 23.34765625 C0.40574964 22.23163199 -4.1732608 19.29366485 -8.703125 15.59765625 C-10.62446401 12.69029282 -10.70694971 11.70474827 -10.578125 8.09765625 C-9.0758459 2.08853985 -6.42420641 -0.27773825 0 0 Z " fill="#ffbc5e" transform="translate(289.703125,190.40234375)"/>
</svg>
